ply
format ascii 1.0
comment Created by Blender 2.62 (sub 0) - www.blender.org, source file: 'grass.blend'
element vertex 144
property float x
property float y
property float z
property float nx
property float ny
property float nz
element face 112
property list uchar uint vertex_indices
end_header
-0.489015 -0.106078 1.102721 0.245216 -0.754997 -0.608112
-0.460535 -0.096827 1.102721 0.245216 -0.754997 -0.608112
-0.414194 -0.287973 1.287975 0.212104 -0.653096 -0.726920
-0.043096 0.477997 1.140464 0.691183 0.241310 -0.681173
0.129680 0.520059 1.276138 0.574389 0.200507 -0.793634
-0.031734 0.445452 1.140464 0.691183 0.241310 -0.681173
-0.802156 -0.418807 0.940352 -0.680471 -0.270089 -0.681173
-0.943035 -0.459438 1.052220 -0.565447 -0.224433 -0.793634
-0.812643 -0.392390 0.940352 -0.680471 -0.270089 -0.681173
-0.915635 0.229829 0.909232 -0.757256 0.238197 -0.608112
-0.923044 0.206277 0.909232 -0.757256 0.238197 -0.608112
-1.073589 0.266572 1.061980 -0.655049 0.206030 -0.726920
0.004980 -0.979185 1.012155 0.534654 -0.631489 -0.561510
0.023442 -0.963555 1.012155 0.534654 -0.631489 -0.561510
0.116579 -1.092275 1.182195 0.472762 -0.558367 -0.681661
-0.455034 -0.678936 1.046798 0.317026 0.703299 -0.636250
-0.383588 -0.554318 1.171329 0.269906 0.598773 -0.754051
-0.429648 -0.690379 1.046798 0.317026 0.703299 -0.636250
0.379688 0.096372 1.269562 0.771447 0.000000 -0.636250
0.553082 0.079485 1.420594 0.656789 0.000000 -0.754051
0.379688 0.062600 1.269562 0.771447 0.000000 -0.636250
-0.502188 0.708688 1.227547 0.157323 0.812342 -0.561510
-0.530990 0.714267 1.227547 0.157323 0.812342 -0.561510
-0.480057 0.900106 1.433772 0.139103 0.718284 -0.681661
0.616634 0.658270 1.370212 0.569475 0.603961 -0.557573
0.593064 0.680495 1.370212 0.569475 0.603931 -0.557573
0.750397 0.823740 1.600404 0.504440 0.534989 -0.677694
0.408464 -0.536869 1.417110 -0.091372 0.769219 -0.632374
0.404395 -0.344542 1.585695 -0.077944 0.656209 -0.750511
0.445495 -0.532470 1.417110 -0.091372 0.769219 -0.632374
0.926611 -0.097330 1.168456 0.452010 0.629078 -0.632374
1.031215 0.021905 1.307461 0.385601 0.536668 -0.750511
0.951582 -0.115272 1.168456 0.452010 0.629078 -0.632374
0.627483 -0.536561 1.129788 0.811731 -0.173742 -0.557573
0.633073 -0.510442 1.129788 0.811731 -0.173742 -0.557573
0.801334 -0.560114 1.319589 0.719016 -0.153874 -0.677694
-0.131174 0.068839 1.014902 -0.128849 0.786340 -0.604175
-0.158079 0.064430 1.014902 -0.128849 0.786340 -0.604175
-0.173504 0.242837 1.185403 -0.111667 0.681509 -0.723197
-0.093872 -0.416926 1.049639 -0.629688 0.380169 -0.677419
-0.223709 -0.320210 1.174508 -0.524369 0.316568 -0.790429
-0.077651 -0.390058 1.049639 -0.629688 0.380169 -0.677419
0.605459 -0.105255 1.273008 -0.449568 -0.582171 -0.677419
0.470953 -0.248303 1.424450 -0.374340 -0.484787 -0.790429
0.575332 -0.081991 1.273008 -0.449568 -0.582171 -0.677419
-0.035676 0.738673 1.230879 -0.104709 -0.789911 -0.604175
-0.002898 0.734327 1.230879 -0.104709 -0.789911 -0.604175
-0.047749 0.521830 1.437663 -0.090762 -0.684591 -0.723197
-0.021851 0.913462 0.908189 -0.121952 -0.919797 -0.372875
0.029303 0.906680 0.908189 -0.121952 -0.919797 -0.372875
-0.008756 1.033763 0.470044 -0.129246 -0.974822 -0.181555
0.048009 1.026236 0.470044 -0.129246 -0.974822 -0.181555
0.053964 1.071155 0.000000 -0.130802 -0.986724 -0.095950
-0.002801 1.078681 0.000000 -0.130802 -0.986724 -0.095950
0.850244 0.192980 0.000000 -0.610157 -0.790185 -0.057375
0.833412 0.171183 0.478975 -0.602619 -0.780419 -0.166662
0.785127 0.208468 0.478975 -0.602619 -0.780419 -0.166662
0.801958 0.230265 0.000000 -0.610157 -0.790185 -0.057375
0.752876 0.071790 0.927166 -0.555193 -0.718986 -0.418043
0.709335 0.105412 0.927166 -0.555193 -0.718986 -0.418043
0.173466 -0.589370 0.000000 -0.854671 0.515976 -0.057375
0.154026 -0.577634 0.394932 -0.844081 0.509598 -0.166662
0.180024 -0.534572 0.394932 -0.844081 0.509598 -0.166662
0.199463 -0.546308 0.000000 -0.854671 0.515976 -0.057375
0.065029 -0.521018 0.764481 -0.777673 0.469497 -0.418043
0.088472 -0.482187 0.764481 -0.777673 0.469497 -0.418043
-0.100284 -0.072391 0.748833 -0.150060 0.915647 -0.372875
-0.142271 -0.079273 0.748833 -0.150060 0.915647 -0.372875
-0.081848 -0.170451 0.387567 -0.159032 0.970428 -0.181555
-0.128441 -0.178087 0.387567 -0.159032 0.970428 -0.181555
-0.122399 -0.214956 0.000000 -0.160955 0.982269 -0.095950
-0.075806 -0.207320 0.000000 -0.160955 0.982269 -0.095950
0.487609 -0.514279 0.833600 0.921537 -0.197241 -0.334422
0.496334 -0.473518 0.833600 0.921537 -0.197241 -0.334422
0.391568 -0.496060 0.431439 0.965117 -0.206580 -0.160649
0.401250 -0.450828 0.431439 0.965117 -0.206580 -0.160649
0.365457 -0.443167 0.000000 0.974334 -0.208533 -0.084506
0.355776 -0.488399 0.000000 0.974334 -0.208533 -0.084506
0.737300 -0.344926 0.000000 0.582751 0.811060 -0.050508
0.750281 -0.326859 0.439637 0.577105 0.803186 -0.147557
0.790303 -0.355615 0.439637 0.577105 0.803186 -0.147557
0.777322 -0.373681 0.000000 0.582751 0.811060 -0.050508
0.812530 -0.244372 0.851019 0.540361 0.752068 -0.377300
0.848620 -0.270302 0.851019 0.540361 0.752068 -0.377300
0.441873 -0.913393 0.000000 -0.117801 0.991729 -0.050508
0.438690 -0.886600 0.533194 -0.116642 0.982116 -0.147557
0.498041 -0.879550 0.533194 -0.116642 0.982116 -0.147557
0.501224 -0.906342 0.000000 -0.117801 0.991729 -0.050508
0.426826 -0.761832 1.032120 -0.109226 0.919614 -0.377300
0.480345 -0.755475 1.032120 -0.109226 0.919614 -0.377300
0.505557 0.527237 1.010994 0.646535 0.685659 -0.334422
0.468776 0.561919 1.010994 0.646535 0.685659 -0.334422
0.426262 0.439101 0.523252 0.677114 0.718101 -0.160649
0.385446 0.477588 0.523252 0.677114 0.718101 -0.160649
0.354991 0.445290 0.000000 0.683584 0.724937 -0.084506
0.395807 0.406803 0.000000 0.683584 0.724937 -0.084506
-0.523653 0.554610 0.905731 0.178961 0.924100 -0.337565
-0.568601 0.563316 0.905731 0.178961 0.924100 -0.337565
-0.541597 0.448753 0.468771 0.187597 0.968719 -0.162328
-0.591476 0.458413 0.468771 0.187597 0.968719 -0.162328
-0.599120 0.418944 0.000000 0.189428 0.978149 -0.085421
-0.549241 0.409284 0.000000 0.189428 0.978149 -0.085421
0.037512 0.106551 0.000000 0.998688 0.000000 -0.051057
0.061947 0.106551 0.477679 0.988800 0.000000 -0.149113
0.061947 0.052424 0.477679 0.988800 0.000000 -0.149113
0.037512 0.052424 0.000000 0.998688 0.000000 -0.051057
0.175418 0.103892 0.924657 0.924680 0.000000 -0.380657
0.175418 0.055083 0.924657 0.924680 0.000000 -0.380657
-0.578626 -0.932700 0.000000 0.410382 0.910459 -0.051057
-0.570347 -0.914332 0.393863 0.406323 0.901456 -0.149113
-0.529660 -0.932673 0.393863 0.406323 0.901456 -0.149113
-0.537939 -0.951040 0.000000 0.410382 0.910459 -0.051057
-0.529900 -0.829938 0.762412 0.379986 0.843013 -0.380657
-0.493210 -0.846476 0.762412 0.379986 0.843013 -0.380657
-0.082963 -0.885810 0.746807 0.608234 -0.718375 -0.337565
-0.054153 -0.861417 0.746807 0.608234 -0.718375 -0.337565
-0.141733 -0.819603 0.386518 0.637593 -0.753044 -0.162328
-0.109762 -0.792534 0.386518 0.637593 -0.753044 -0.162328
-0.131182 -0.767235 0.000000 0.643788 -0.760369 -0.085421
-0.163153 -0.794304 0.000000 0.643788 -0.760369 -0.085421
-0.788841 0.197201 0.670866 -0.883816 0.277993 -0.376263
-0.800402 0.160445 0.670866 -0.883816 0.277993 -0.376263
-0.702033 0.172112 0.347214 -0.937712 0.294961 -0.183416
-0.714863 0.131324 0.347214 -0.937712 0.294961 -0.183416
-0.682587 0.121172 0.000000 -0.949400 0.298624 -0.096957
-0.669757 0.161960 0.000000 -0.949400 0.298624 -0.096957
-0.531335 -0.320522 0.000000 -0.927885 -0.368297 -0.058016
-0.550449 -0.328109 0.353812 -0.916166 -0.363659 -0.168401
-0.567255 -0.285769 0.353812 -0.916166 -0.363659 -0.168401
-0.548142 -0.278182 0.000000 -0.927885 -0.368297 -0.058016
-0.640035 -0.361262 0.684884 -0.842799 -0.334544 -0.421583
-0.655190 -0.323082 0.684884 -0.842799 -0.334544 -0.421583
-0.376263 0.372686 0.000000 0.942503 0.329051 -0.058016
-0.352716 0.380906 0.429105 0.930631 0.324870 -0.168401
-0.334506 0.328746 0.429105 0.930631 0.324900 -0.168401
-0.358053 0.320525 0.000000 0.942503 0.329051 -0.058016
-0.242473 0.416519 0.830631 0.856075 0.298868 -0.421583
-0.226053 0.369483 0.830631 0.856075 0.298868 -0.421583
-0.545980 0.042139 0.813629 0.286203 -0.881191 -0.376263
-0.501535 0.056575 0.813629 0.286203 -0.881191 -0.376263
-0.582262 0.145549 0.421103 0.303659 -0.934935 -0.183416
-0.532941 0.161568 0.421103 0.303659 -0.934935 -0.183416
-0.545617 0.200596 0.000000 0.307443 -0.946593 -0.096957
-0.594939 0.184577 0.000000 0.307443 -0.946593 -0.096957
3 0 1 2
3 3 4 5
3 6 7 8
3 9 10 11
3 12 13 14
3 15 16 17
3 18 19 20
3 21 22 23
3 24 25 26
3 27 28 29
3 30 31 32
3 33 34 35
3 36 37 38
3 39 40 41
3 42 43 44
3 45 46 47
3 48 49 45
3 49 46 45
3 50 51 49
3 50 49 48
3 52 51 50
3 52 50 53
3 54 55 56
3 54 56 57
3 56 55 58
3 56 58 59
3 59 58 42
3 59 42 44
3 60 61 62
3 60 62 63
3 62 61 64
3 62 64 65
3 65 64 39
3 65 39 41
3 66 67 37
3 66 37 36
3 68 69 67
3 68 67 66
3 70 69 68
3 70 68 71
3 72 73 34
3 72 34 33
3 74 75 73
3 74 73 72
3 76 75 74
3 76 74 77
3 78 79 80
3 78 80 81
3 80 79 82
3 80 82 83
3 83 82 30
3 83 30 32
3 84 85 86
3 84 86 87
3 86 85 88
3 86 88 89
3 89 88 27
3 89 27 29
3 90 91 25
3 90 25 24
3 92 93 91
3 92 91 90
3 94 93 92
3 94 92 95
3 96 97 21
3 97 22 21
3 98 99 97
3 98 97 96
3 100 99 98
3 100 98 101
3 102 103 104
3 102 104 105
3 104 103 106
3 104 106 107
3 107 106 18
3 107 18 20
3 108 109 110
3 108 110 111
3 110 109 112
3 110 112 113
3 113 112 15
3 113 15 17
3 114 115 13
3 114 13 12
3 116 117 115
3 116 115 114
3 118 117 116
3 118 116 119
3 120 121 10
3 120 10 9
3 122 123 121
3 122 121 120
3 124 123 122
3 124 122 125
3 126 127 128
3 126 128 129
3 128 127 130
3 128 130 131
3 131 130 6
3 131 6 8
3 132 133 134
3 132 134 135
3 134 133 136
3 134 136 137
3 137 136 3
3 137 3 5
3 138 139 1
3 138 1 0
3 140 141 139
3 140 139 138
3 142 141 140
3 142 140 143
